<svg xmlns="http://www.w3.org/2000/svg" version="1.1" xmlns:xlink="http://www.w3.org/1999/xlink" xmlns:svgjs="http://svgjs.com/svgjs" width="1440" height="560" preserveAspectRatio="none" viewBox="0 0 1440 560"><g clip-path="url(&quot;#SvgjsClipPath1005&quot;)" fill="none"><circle r="93.335" cx="-0.86" cy="-67.33" stroke="#eb0505" stroke-opacity="0.55" stroke-width="2"></circle><circle r="93.335" cx="359.24" cy="361.09" stroke="#eb0505" stroke-opacity="0.55" stroke-width="2"></circle><circle r="93.335" cx="670.29" cy="700.35" stroke="#eb0505" stroke-opacity="0.55" stroke-width="2"></circle><circle r="118.04" cx="746.59" cy="107.37" stroke="#eb0505" stroke-opacity="0.55" stroke-width="2"></circle><circle r="129.31" cx="598.28" cy="85.95" stroke="#eb0505" stroke-opacity="0.55" stroke-width="2"></circle><circle r="185.585" cx="1035.57" cy="466.33" stroke="#eb0505" stroke-opacity="0.55" stroke-width="2"></circle><circle r="49.65" cx="584.12" cy="551.43" stroke="#eb0505" stroke-opacity="0.55" stroke-width="2"></circle><circle r="57.96" cx="1107.91" cy="14.44" stroke="#eb0505" stroke-opacity="0.55" stroke-width="2"></circle><circle r="177.39" cx="328.13" cy="216.68" stroke="#eb0505" stroke-opacity="0.55" stroke-width="2"></circle><circle r="82.985" cx="974.9" cy="354.21" stroke="#eb0505" stroke-opacity="0.55" stroke-width="2"></circle><circle r="107.53" cx="1084.34" cy="557.65" stroke="#eb0505" stroke-opacity="0.55" stroke-width="2"></circle><circle r="183.77" cx="206.34" cy="340.65" stroke="#eb0505" stroke-opacity="0.55" stroke-width="2"></circle><circle r="54.345" cx="288.25" cy="393.49" stroke="#eb0505" stroke-opacity="0.55" stroke-width="2"></circle><circle r="131.465" cx="376.53" cy="235.64" stroke="#eb0505" stroke-opacity="0.55" stroke-width="2"></circle><circle r="136.64" cx="1400.66" cy="75.34" stroke="#eb0505" stroke-opacity="0.55" stroke-width="2"></circle><circle r="103.55" cx="449.86" cy="49.78" stroke="#eb0505" stroke-opacity="0.55" stroke-width="2"></circle><circle r="143.19" cx="6.52" cy="203.34" stroke="#eb0505" stroke-opacity="0.55" stroke-width="2"></circle><circle r="122.86" cx="1307.56" cy="500.56" stroke="#eb0505" stroke-opacity="0.55" stroke-width="2"></circle><circle r="47.915" cx="788" cy="192.93" stroke="#eb0505" stroke-opacity="0.55" stroke-width="2"></circle><circle r="170.79" cx="345.75" cy="552.25" stroke="#eb0505" stroke-opacity="0.55" stroke-width="2"></circle><circle r="161.48" cx="640.63" cy="428.62" stroke="#eb0505" stroke-opacity="0.55" stroke-width="2"></circle><circle r="90.855" cx="920.49" cy="169.2" stroke="#eb0505" stroke-opacity="0.55" stroke-width="2"></circle><circle r="105.425" cx="133.29" cy="384.55" stroke="#eb0505" stroke-opacity="0.55" stroke-width="2"></circle><circle r="55.475" cx="742.92" cy="208.59" stroke="#eb0505" stroke-opacity="0.55" stroke-width="2"></circle><circle r="158.31" cx="213.99" cy="414.97" stroke="#eb0505" stroke-opacity="0.55" stroke-width="2"></circle><circle r="164.95" cx="79.28" cy="356.3" stroke="#eb0505" stroke-opacity="0.55" stroke-width="2"></circle><circle r="72.905" cx="92.56" cy="521.95" stroke="#eb0505" stroke-opacity="0.55" stroke-width="2"></circle><circle r="75.31" cx="654.68" cy="213.72" stroke="#eb0505" stroke-opacity="0.55" stroke-width="2"></circle><circle r="57.99" cx="168.11" cy="452.65" stroke="#eb0505" stroke-opacity="0.55" stroke-width="2"></circle><circle r="128.155" cx="991.57" cy="308.16" stroke="#eb0505" stroke-opacity="0.55" stroke-width="2"></circle><circle r="154.625" cx="196.32" cy="524.02" stroke="#eb0505" stroke-opacity="0.55" stroke-width="2"></circle><circle r="122.585" cx="1137.52" cy="71.92" stroke="#eb0505" stroke-opacity="0.55" stroke-width="2"></circle><circle r="162.135" cx="486.78" cy="126.67" stroke="#eb0505" stroke-opacity="0.55" stroke-width="2"></circle><circle r="150.905" cx="1059.81" cy="381.44" stroke="#eb0505" stroke-opacity="0.55" stroke-width="2"></circle><circle r="106.045" cx="654.54" cy="307.8" stroke="#eb0505" stroke-opacity="0.55" stroke-width="2"></circle><circle r="147.22" cx="689.71" cy="358.08" stroke="#eb0505" stroke-opacity="0.55" stroke-width="2"></circle><circle r="118.14" cx="128.48" cy="344.36" stroke="#eb0505" stroke-opacity="0.55" stroke-width="2"></circle><circle r="131.32" cx="658.21" cy="338.88" stroke="#eb0505" stroke-opacity="0.55" stroke-width="2"></circle><circle r="132.47" cx="1216.59" cy="283.19" stroke="#eb0505" stroke-opacity="0.55" stroke-width="2"></circle><circle r="112.44" cx="41.58" cy="91.94" stroke="#eb0505" stroke-opacity="0.55" stroke-width="2"></circle></g><defs><clipPath id="SvgjsClipPath1005"><rect width="1440" height="560" x="0" y="0"></rect></clipPath></defs></svg>